<?xml version="1.0" standalone="no"?>
<!DOCTYPE svg PUBLIC "-//W3C//DTD SVG 20010904//EN"
 "http://www.w3.org/TR/2001/REC-SVG-20010904/DTD/svg10.dtd">
<svg version="1.0" xmlns="http://www.w3.org/2000/svg"
 width="1197.000000pt" height="1188.000000pt" viewBox="0 0 1197.000000 1188.000000"
 preserveAspectRatio="xMidYMid meet">

<g transform="translate(0.000000,1188.000000) scale(0.100000,-0.100000)"
fill="#000000" stroke="none">
<path d="M5555 11874 c-632 -51 -1159 -168 -1762 -391 -161 -59 -203 -79 -201
-92 6 -26 46 -19 443 78 765 186 1121 235 1720 236 370 0 510 -9 798 -50 1055
-153 2050 -635 2962 -1436 861 -757 1596 -1871 1965 -2978 98 -293 203 -714
235 -943 l6 -48 -95 0 -96 0 0 165 0 164 -57 16 c-32 9 -69 20 -83 24 l-25 8
-5 204 c-3 112 -9 210 -13 217 -5 7 -20 17 -33 23 -38 14 -51 61 -60 204 -4
71 -10 141 -14 155 l-7 25 -18 -35 c-15 -27 -20 -67 -25 -178 -6 -132 -16
-179 -36 -159 -10 10 -23 157 -23 270 -1 90 -2 97 -21 97 -19 0 -20 -7 -20
-178 l0 -179 -59 -18 -60 -18 -5 -51 c-3 -28 -10 -188 -16 -356 -12 -342 -15
-385 -36 -417 -20 -32 -44 -29 -95 12 -55 43 -87 45 -132 5 l-34 -30 -7 83
c-4 45 -9 101 -12 125 l-6 42 -198 0 -197 0 -6 -82 c-4 -46 -7 -102 -7 -125 0
-29 -11 -62 -37 -110 -33 -61 -37 -77 -41 -160 l-4 -93 -37 0 c-20 0 -46 -3
-58 -6 -16 -5 -23 -2 -23 8 0 8 -7 38 -15 66 l-16 52 -79 0 -80 0 0 -585 c0
-578 0 -585 -20 -585 -20 0 -20 7 -20 1210 l0 1210 -323 0 c-317 0 -324 0
-343 -21 -18 -20 -19 -45 -22 -490 -1 -258 -6 -469 -10 -469 -4 0 -24 5 -45
11 -30 8 -42 18 -53 44 -8 19 -23 39 -33 45 -12 6 -99 10 -214 10 -225 0 -201
-15 -213 128 l-7 82 -161 -2 -161 -3 -27 -73 c-59 -152 -62 -182 -64 -612 -2
-297 -6 -421 -18 -498 -19 -129 -55 -282 -66 -282 -4 0 -10 15 -14 33 -4 17
-6 673 -6 1456 l1 1424 -35 71 c-34 68 -121 181 -154 200 -26 15 -261 20 -338
7 -128 -22 -213 -91 -251 -205 -16 -47 -18 -133 -21 -995 -2 -662 -6 -949 -14
-958 -6 -7 -31 -13 -59 -13 l-48 0 -3 548 c-4 617 1 574 -86 704 -117 174
-155 274 -151 403 3 94 -5 125 -32 125 -10 0 -19 -3 -19 -7 -1 -5 -5 -69 -10
-143 -5 -77 -15 -154 -24 -179 -9 -24 -44 -81 -77 -125 -75 -99 -103 -153
-130 -253 -22 -77 -22 -85 -23 -1103 l-1 -1025 -26 -3 c-15 -2 -34 4 -44 14
-16 17 -17 62 -14 698 2 375 0 700 -4 723 l-8 41 -59 7 c-66 8 -69 10 -94 78
-29 77 -30 77 -281 77 -234 -1 -235 -1 -268 -52 -25 -40 -71 -48 -283 -48
l-191 0 -6 -172 c-4 -95 -7 -435 -7 -754 0 -564 -1 -582 -19 -587 -14 -3 -21
2 -27 22 -4 14 -9 260 -9 547 -2 382 -6 535 -15 575 -17 72 -59 154 -107 209
-22 25 -49 62 -62 83 -12 20 -26 37 -31 37 -4 0 -16 -12 -25 -27 l-18 -27 -18
23 c-13 16 -25 21 -38 16 -32 -10 -101 -95 -135 -165 -27 -58 -31 -77 -34
-175 -2 -60 -9 -116 -15 -123 -10 -13 -99 -62 -112 -62 -3 0 -5 118 -5 263 l0
262 -53 25 c-29 14 -57 36 -64 50 -7 14 -13 63 -13 112 0 48 -4 98 -10 113
l-10 25 -182 -2 -182 -3 -30 -160 c-29 -159 -29 -164 -33 -617 -3 -252 -8
-458 -13 -458 -4 0 -10 10 -14 23 -3 12 -6 335 -6 718 0 760 -1 767 -57 821
-51 49 -89 58 -244 58 -158 0 -140 8 -205 -88 -20 -29 -40 -67 -45 -84 -5 -18
-20 -227 -34 -466 -17 -289 -30 -445 -39 -466 l-14 -31 -19 45 c-18 41 -20 65
-18 247 l2 201 -59 17 c-139 39 -313 40 -463 2 l-50 -12 -3 -757 c-2 -750 -2
-758 -22 -758 -20 0 -20 7 -20 481 l0 482 -42 -6 c-24 -4 -89 -15 -145 -25
l-103 -19 0 568 c0 403 -3 575 -11 593 -7 14 -26 32 -44 40 -18 9 -37 24 -41
33 -5 10 -11 183 -14 385 l-5 366 -24 26 c-14 14 -48 34 -78 43 -46 15 -53 20
-58 47 -2 17 -6 155 -9 306 -2 194 -8 300 -20 362 -18 97 -64 253 -73 244 -3
-3 -9 -51 -13 -108 -5 -72 -7 6 -9 255 l-1 357 -25 0 -25 0 0 -370 c0 -322 -2
-370 -15 -370 -13 0 -15 48 -15 370 l0 370 -25 0 -25 0 0 -370 c0 -309 -2
-370 -14 -370 -10 0 -16 25 -21 103 -7 92 -14 116 -37 117 -5 0 -8 -54 -8
-121 l0 -121 -32 -30 -33 -31 -3 -286 c-1 -157 -5 -297 -8 -310 -3 -14 -22
-40 -42 -58 l-37 -34 -5 -383 c-5 -360 -6 -385 -24 -405 -11 -12 -24 -21 -31
-21 -6 0 -18 -12 -26 -27 -11 -23 -15 -127 -19 -545 -3 -284 -8 -519 -11 -523
-4 -3 -47 -11 -98 -17 l-91 -11 0 -704 c0 -462 -3 -703 -10 -703 -12 0 -13 3
-15 575 -2 383 -5 489 -19 575 -31 198 -39 223 -66 237 -50 25 -50 27 -50 354
l0 307 -78 19 -77 19 -5 344 c-5 332 -6 347 -27 386 -44 82 -115 119 -212 112
-70 -5 -125 -31 -158 -74 -50 -66 -52 -85 -53 -440 l0 -330 -80 -23 -80 -24 0
-503 0 -504 -195 0 -195 0 0 -275 c0 -265 1 -282 35 -497 86 -541 191 -941
359 -1368 72 -181 238 -524 341 -701 531 -918 1367 -1715 2325 -2217 645 -339
1336 -551 2167 -667 176 -24 200 -25 703 -25 l521 0 257 41 c424 67 624 109
915 193 1158 336 2242 1063 3038 2036 620 759 1058 1700 1234 2655 66 358 69
393 72 993 l4 554 -36 231 c-45 296 -68 418 -110 593 -192 801 -533 1534
-1010 2169 -467 623 -1092 1182 -1770 1585 -660 392 -1415 656 -2200 769 -321
47 -419 53 -835 56 -223 1 -427 1 -455 -1z m-3395 -7563 c0 -47 -2 -50 -37
-68 -26 -12 -45 -32 -61 -63 l-22 -45 2 -526 3 -526 27 -35 c15 -19 41 -41 57
-48 29 -11 31 -16 31 -61 l0 -49 -38 0 c-56 0 -186 35 -245 67 -84 45 -198
165 -240 253 -59 123 -81 231 -80 395 1 116 5 157 26 237 79 301 286 491 565
517 8 1 12 -15 12 -48z m225 8 c138 -46 166 -46 190 0 19 38 50 48 76 25 18
-16 19 -33 19 -270 0 -216 -2 -255 -16 -268 -29 -30 -75 -14 -92 31 -6 15 -18
55 -27 88 -40 143 -131 266 -230 311 l-55 25 0 50 c0 27 3 49 6 49 3 0 61 -19
129 -41z m3485 -8 c0 -47 -2 -50 -37 -68 -25 -13 -46 -34 -60 -63 -23 -44 -23
-45 -23 -555 0 -510 0 -511 23 -555 14 -30 35 -52 59 -65 36 -19 38 -23 38
-67 l0 -48 -37 0 c-113 1 -263 63 -355 148 -124 114 -185 251 -208 465 -19
174 10 347 85 502 99 206 280 333 503 354 8 1 12 -15 12 -48z m237 4 c125 -42
154 -41 178 4 20 40 52 49 79 22 20 -20 21 -32 24 -244 4 -256 1 -283 -34
-299 -47 -22 -69 1 -99 99 -53 174 -141 299 -239 339 l-46 19 0 52 c0 37 4 51
13 49 6 -3 62 -21 124 -41z m2303 -4 c0 -41 -4 -51 -26 -66 -14 -9 -34 -35
-45 -58 -17 -39 -19 -73 -19 -557 0 -319 4 -529 10 -552 6 -20 26 -50 45 -67
30 -26 35 -36 35 -76 0 -53 -8 -55 -105 -30 -135 36 -279 150 -358 285 -105
181 -138 449 -82 665 21 83 83 208 138 281 78 103 201 183 321 209 89 20 86
21 86 -34z m280 11 c155 -40 157 -40 196 2 36 39 50 43 80 22 18 -13 19 -30
22 -228 4 -244 1 -272 -33 -294 -41 -27 -68 -1 -100 98 -66 204 -156 298 -317
332 -26 6 -28 10 -28 55 l0 49 43 -5 c23 -3 85 -17 137 -31z m1050 -11 c0 -46
-3 -51 -35 -70 -67 -39 -66 -30 -63 -636 l3 -544 29 -30 c16 -17 38 -33 48
-37 14 -4 18 -16 18 -55 0 -57 0 -57 -99 -34 -218 52 -382 222 -453 470 -19
69 -23 104 -23 245 0 193 13 255 80 395 86 177 226 288 420 330 33 7 63 14 68
14 4 1 7 -21 7 -48z m190 28 c165 -34 322 -160 398 -319 72 -149 101 -326 82
-500 -36 -327 -211 -551 -480 -614 -100 -24 -100 -24 -100 33 0 45 2 50 31 61
17 8 40 27 50 44 18 29 19 60 19 576 0 418 -3 551 -13 570 -7 14 -29 36 -50
49 -34 23 -37 28 -37 73 0 45 2 48 23 44 12 -3 47 -10 77 -17z m-6422 -25 c37
-25 26 -65 -23 -88 -22 -10 -43 -23 -47 -30 -4 -6 -7 -267 -5 -581 l2 -570 48
-23 c40 -19 47 -27 47 -52 0 -19 -7 -33 -19 -40 -12 -6 -129 -10 -311 -10
-182 0 -299 4 -311 10 -23 13 -25 52 -4 70 8 7 30 20 48 29 l32 16 3 578 2
577 -47 23 c-57 27 -70 64 -31 91 19 14 63 16 308 16 245 0 289 -2 308 -16z
m720 0 c39 -27 26 -64 -31 -91 l-47 -23 2 -577 3 -578 35 -17 c19 -9 41 -22
48 -28 19 -17 15 -58 -7 -70 -12 -6 -129 -10 -311 -10 -182 0 -299 4 -311 10
-12 7 -19 21 -19 40 0 25 7 33 48 52 l47 23 3 268 2 267 -85 0 -85 0 0 50 0
50 85 0 85 0 0 253 c0 138 -4 257 -8 263 -4 7 -25 20 -47 30 -49 23 -60 63
-23 88 19 14 63 16 308 16 245 0 289 -2 308 -16z m878 -9 c32 -32 20 -59 -37
-81 -24 -10 -41 -24 -44 -38 -3 -11 -4 -273 -3 -581 l3 -560 43 -21 c64 -31
75 -51 42 -84 -19 -19 -33 -20 -316 -20 -184 0 -303 4 -315 10 -23 13 -25 52
-4 70 8 7 30 20 48 29 l32 16 3 578 2 577 -47 23 c-57 27 -70 64 -31 91 19 14
63 16 311 16 l288 0 25 -25z m2264 21 c0 -3 65 -281 145 -618 80 -337 147
-623 150 -635 3 -12 17 -30 31 -40 39 -26 74 -61 74 -72 0 -5 -7 -17 -16 -25
-13 -14 -56 -16 -310 -16 -185 0 -303 4 -315 10 -32 17 -23 53 21 89 48 38 49
55 16 181 l-22 85 -138 3 c-113 2 -137 5 -133 17 3 7 9 30 13 49 l6 36 114 0
c102 0 114 2 114 18 -1 9 -43 199 -94 422 -94 411 -95 414 -71 488 3 9 54 12
210 12 113 0 205 -2 205 -4z m-536 -816 c-52 -190 -94 -363 -94 -385 0 -51 20
-79 73 -106 60 -31 71 -53 41 -83 -13 -13 -44 -16 -185 -16 -98 0 -179 4 -190
10 -12 7 -19 21 -19 39 0 23 8 31 51 52 56 26 88 61 118 130 11 24 69 229 131
454 61 226 114 417 117 425 3 8 16 -28 29 -80 l23 -95 -95 -345z m2197 110
c30 -17 25 -65 -11 -97 l-30 -26 0 -204 0 -203 -62 -46 c-112 -82 -242 -137
-358 -150 l-60 -7 0 52 c0 28 4 51 9 51 5 0 23 13 40 29 l31 29 0 225 c0 167
-3 227 -12 235 -7 6 -30 13 -50 17 -44 8 -61 25 -56 57 6 43 36 48 296 48 149
0 251 -4 263 -10z m-6376 -314 c50 -36 -2 -170 -108 -275 -70 -71 -179 -130
-251 -138 l-46 -6 0 50 0 49 53 17 c47 15 114 52 158 89 34 29 88 110 104 157
22 67 51 85 90 57z m3716 -7 c36 -36 12 -114 -64 -214 -73 -96 -199 -179 -292
-192 l-45 -6 0 51 c0 48 2 52 28 58 117 29 237 138 277 254 24 70 58 87 96 49z"/>
</g>
</svg>
